<svg width="101" height="100" viewBox="0 0 101 100" fill="none" xmlns="http://www.w3.org/2000/svg">
<rect x="0.5" width="100" height="100" rx="50" fill="#171010"/>
<circle cx="50.5003" cy="50.0003" r="39.5161" stroke="white" stroke-width="1.6129" stroke-dasharray="3.23 3.23"/>
<path d="M28.5108 53.168C25.6408 53.168 23.6808 50.942 23.6808 48.226C23.6808 45.412 25.6828 43.312 28.5108 43.312C30.0088 43.312 31.0868 43.844 32.0948 44.866L31.5488 45.426C30.7928 44.642 29.8688 44.166 28.5108 44.166C26.2148 44.166 24.6048 45.916 24.6048 48.226C24.6048 50.48 26.2008 52.314 28.5108 52.314C29.8548 52.314 30.9188 51.67 31.6188 50.732L32.2768 51.25C31.4928 52.384 30.1908 53.168 28.5108 53.168ZM37.8596 43.41L42.2836 52.972V53H41.3176L40.3096 50.816H35.1016L34.0936 53H33.1276V52.972L37.5516 43.41H37.8596ZM37.7056 45.034C37.5236 45.468 37.3696 45.888 37.1736 46.308L35.4796 49.976H39.9176L38.2376 46.308C38.0416 45.902 37.8736 45.482 37.7056 45.034ZM50.8466 43.48H51.7706V53.07H51.3646L45.4426 46.098C45.2326 45.846 44.9946 45.58 44.7566 45.314C44.7846 45.608 44.7986 45.902 44.7986 46.224V53H43.8746V43.41H44.2666L50.1746 50.354C50.3986 50.606 50.6366 50.872 50.8746 51.152C50.8466 50.802 50.8466 50.466 50.8466 50.158V43.48ZM58.794 53.168C55.924 53.168 53.964 50.942 53.964 48.226C53.964 45.412 55.966 43.312 58.794 43.312C60.292 43.312 61.37 43.844 62.378 44.866L61.832 45.426C61.076 44.642 60.152 44.166 58.794 44.166C56.498 44.166 54.888 45.916 54.888 48.226C54.888 50.48 56.484 52.314 58.794 52.314C60.138 52.314 61.202 51.67 61.902 50.732L62.56 51.25C61.776 52.384 60.474 53.168 58.794 53.168ZM65.2791 52.16H70.1651V53H64.3551V43.48H70.0391V44.32H65.2791V47.708H69.4651V48.534H65.2791V52.16ZM72.1754 53V43.48H73.0994V52.16H77.6914V53H72.1754Z" fill="white"/>
</svg>
