<svg width="25" height="25" viewBox="0 0 25 25" fill="none" xmlns="http://www.w3.org/2000/svg">
<path fill-rule="evenodd" clip-rule="evenodd" d="M3.125 7.29167C3.125 6.71637 3.59137 6.25 4.16667 6.25H20.8333C21.4086 6.25 21.875 6.71637 21.875 7.29167C21.875 7.86696 21.4086 8.33333 20.8333 8.33333H4.16667C3.59137 8.33333 3.125 7.86696 3.125 7.29167ZM6.25 12.5C6.25 11.9247 6.71637 11.4583 7.29167 11.4583H17.7083C18.2836 11.4583 18.75 11.9247 18.75 12.5C18.75 13.0753 18.2836 13.5417 17.7083 13.5417H7.29167C6.71637 13.5417 6.25 13.0753 6.25 12.5ZM9.375 17.7083C9.375 17.133 9.84137 16.6667 10.4167 16.6667H14.5833C15.1586 16.6667 15.625 17.133 15.625 17.7083C15.625 18.2836 15.1586 18.75 14.5833 18.75H10.4167C9.84137 18.75 9.375 18.2836 9.375 17.7083Z" fill="black"/>
</svg>
