<svg width="40" height="40" viewBox="0 0 40 40" fill="none" xmlns="http://www.w3.org/2000/svg">
  <rect width="40" height="40" rx="8" fill="white"/>
  <path d="M31.6 14.4C31.4 13.6 30.8 13 30 12.8C28.6 12.4 20 12.4 20 12.4C20 12.4 11.4 12.4 10 12.8C9.2 13 8.6 13.6 8.4 14.4C8 15.8 8 18.8 8 18.8C8 18.8 8 21.8 8.4 23.2C8.6 24 9.2 24.6 10 24.8C11.4 25.2 20 25.2 20 25.2C20 25.2 28.6 25.2 30 24.8C30.8 24.6 31.4 24 31.6 23.2C32 21.8 32 18.8 32 18.8C32 18.8 32 15.8 31.6 14.4Z" fill="#171010"/>
  <path d="M17.6 22V15.6L23.2 18.8L17.6 22Z" fill="white"/>
</svg>

