<svg width="16" height="16" viewBox="0 0 16 16" fill="none" xmlns="http://www.w3.org/2000/svg">
<path d="M12.2923 13.958H3.70964C3.26761 13.958 2.84368 13.7824 2.53112 13.4698C2.21856 13.1573 2.04297 12.7334 2.04297 12.2913V3.70866C2.04297 3.26663 2.21856 2.84271 2.53112 2.53015C2.84368 2.21759 3.26761 2.04199 3.70964 2.04199H12.2923C12.7343 2.04199 13.1583 2.21759 13.4708 2.53015C13.7834 2.84271 13.959 3.26663 13.959 3.70866V12.2913C13.959 12.7334 13.7834 13.1573 13.4708 13.4698C13.1583 13.7824 12.7343 13.958 12.2923 13.958ZM3.70964 2.70866C3.44442 2.70866 3.19007 2.81402 3.00253 3.00155C2.81499 3.18909 2.70964 3.44344 2.70964 3.70866V12.2913C2.70964 12.5565 2.81499 12.8109 3.00253 12.9984C3.19007 13.186 3.44442 13.2913 3.70964 13.2913H12.2923C12.5575 13.2913 12.8119 13.186 12.9994 12.9984C13.1869 12.8109 13.2923 12.5565 13.2923 12.2913V3.70866C13.2923 3.44344 13.1869 3.18909 12.9994 3.00155C12.8119 2.81402 12.5575 2.70866 12.2923 2.70866H3.70964Z" fill="white"/>
<path d="M8.00141 11.0627C7.39565 11.062 6.80369 10.8818 6.30035 10.5448C5.79701 10.2077 5.4049 9.72904 5.17357 9.16919C4.94225 8.60935 4.8821 7.99348 5.00072 7.39946C5.11935 6.80543 5.41144 6.25991 5.84005 5.83185C6.26866 5.4038 6.81457 5.11243 7.40875 4.99457C8.00293 4.87672 8.61871 4.93767 9.17826 5.16973C9.7378 5.40179 10.216 5.79453 10.5524 6.2983C10.8887 6.80208 11.0682 7.39428 11.0681 8.00003C11.067 8.81267 10.7435 9.59166 10.1685 10.1659C9.59346 10.7402 8.81405 11.0627 8.00141 11.0627ZM8.00141 5.60003C7.52768 5.60069 7.06477 5.74173 6.67115 6.00533C6.27753 6.26894 5.97086 6.64328 5.78987 7.08108C5.60889 7.51887 5.56171 8.00049 5.65429 8.46508C5.74687 8.92968 5.97506 9.35642 6.31004 9.6914C6.64502 10.0264 7.07176 10.2546 7.53636 10.3472C8.00096 10.4397 8.48257 10.3926 8.92037 10.2116C9.35816 10.0306 9.73251 9.72391 9.99611 9.3303C10.2597 8.93668 10.4007 8.47377 10.4014 8.00003C10.4014 7.36352 10.1486 6.75307 9.69846 6.30298C9.24838 5.85289 8.63793 5.60003 8.00141 5.60003Z" fill="white"/>
<path d="M11.4667 5.27C11.8625 5.27 12.1833 4.94914 12.1833 4.55334C12.1833 4.15753 11.8625 3.83667 11.4667 3.83667C11.0709 3.83667 10.75 4.15753 10.75 4.55334C10.75 4.94914 11.0709 5.27 11.4667 5.27Z" fill="white"/>
</svg>
