<svg width="32" height="9" viewBox="0 0 32 9" fill="none" xmlns="http://www.w3.org/2000/svg">
<rect width="31.9313" height="8.65877" transform="translate(0 0.0625)" fill="url(#paint0_linear_581_10205)"/>
<path d="M13.4457 2.07072H13.7194V4.91136H13.5991L11.845 2.84619C11.7828 2.77155 11.7123 2.69276 11.6418 2.61397C11.6501 2.70105 11.6542 2.78814 11.6542 2.88352V4.89062H11.3805V2.04998H11.4966L13.2466 4.10686C13.313 4.1815 13.3835 4.26029 13.454 4.34323C13.4457 4.23956 13.4457 4.14003 13.4457 4.0488V2.07072ZM14.8211 4.64181H16.2684V4.89062H14.5474V2.07072H16.231V2.31953H14.8211V3.32309H16.061V3.56776H14.8211V4.64181ZM20.0736 2.07072H20.3555V2.08316L19.381 4.91136H19.2981L18.5558 3.08257C18.5143 2.98719 18.4811 2.88352 18.4438 2.76326C18.4065 2.88766 18.3775 2.98719 18.336 3.08257L17.5937 4.91136H17.5108L16.5404 2.08316V2.07072H16.8224L17.4444 3.9161C17.4859 4.04465 17.5356 4.1815 17.5771 4.34323C17.6227 4.1815 17.6683 4.05295 17.7223 3.92025L18.4023 2.22001H18.4811L19.1364 3.83731C19.2069 4.01148 19.2691 4.18565 19.3188 4.34738C19.3686 4.1815 19.4225 4.01148 19.4723 3.86634L20.0736 2.07072Z" fill="#171010"/>
<defs>
<linearGradient id="paint0_linear_581_10205" x1="0" y1="4.32938" x2="31.9313" y2="4.32938" gradientUnits="userSpaceOnUse">
<stop stop-color="#E3A455"/>
<stop offset="0.53" stop-color="#F6DBA6"/>
<stop offset="1" stop-color="#BA7F3B"/>
</linearGradient>
</defs>
</svg>
