<svg width="24" height="24" viewBox="0 0 24 24" fill="none" xmlns="http://www.w3.org/2000/svg">
<path d="M0.5 12.0001L6.683 7.77409L8.792 0.588085L14.722 5.16309L22.208 4.94709L19.69 12.0001L22.208 19.0541L14.722 18.8381L8.792 23.4131L6.683 16.2261L0.5 12.0001ZM12 14.0001V16.0001C13.0436 16.0001 14.0458 15.5923 14.7929 14.8637C15.54 14.1351 15.9727 13.1433 15.9988 12.1001C16.0249 11.0569 15.6423 10.0448 14.9326 9.27971C14.2228 8.51466 13.2422 8.05725 12.2 8.00509L12 8.00009L12 10.0001C12.519 9.99776 13.0185 10.1973 13.3932 10.5565C13.7678 10.9157 13.9881 11.4064 14.0075 11.925C14.027 12.4436 13.8441 12.9495 13.4975 13.3358C13.1509 13.7221 12.6677 13.9585 12.15 13.9951L12 14.0001Z" fill="white"/>
</svg>
